<svg xmlns="http://www.w3.org/2000/svg" viewBox="0 0 27 27" width="32" height="32" fill="#b6fc00" fill-rule="evenodd" shape-rendering="crispEdges" aria-hidden="true">
<path d="M17 4L17 5L19 5L19 6L21 6L21 7L22 7L22 9L23 9L23 11L24 11L24 17L23 17L23 19L22 19L22 21L21 21L21 22L19 22L19 23L17 23L17 24L11 24L11 23L9 23L9 22L7 22L7 21L6 21L6 19L5 19L5 17L4 17L4 11L5 11L5 9L6 9L6 7L7 7L7 6L9 6L9 5L11 5L11 4ZM21 16L22 16L22 17L23 17L23 11L22 11L22 9L21 9L21 7L20 7L20 9L19 9L19 10L20 10L20 11L19 11L19 12L18 12L18 13L19 13L19 14L20 14L20 15L21 15ZM6 17L7 17L7 16L10 16L10 17L11 17L11 18L12 18L12 17L13 17L13 16L14 16L14 15L15 15L15 16L18 16L18 13L17 13L17 12L18 12L18 11L19 11L19 10L18 10L18 9L19 9L19 6L9 6L9 8L8 8L8 9L6 9ZM20 18L20 19L19 19L19 20L18 20L18 21L17 21L17 22L19 22L19 21L21 21L21 18ZM19 19L19 17L18 17L18 18L17 18L17 19L16 19L16 21L17 21L17 20L18 20L18 19ZM10 18L9 18L9 17L7 17L7 18L6 18L6 19L7 19L7 21L9 21L9 22L11 22L11 23L17 23L17 22L16 22L16 21L15 21L15 22L14 22L14 21L13 21L13 22L12 22L12 21L11 21L11 19L10 19ZM12 21L13 21L13 20L14 20L14 21L15 21L15 19L14 19L14 18L13 18L13 19L12 19ZM15 16L14 16L14 17L15 17ZM16 17L15 17L15 18L16 18ZM7 7L7 8L8 8L8 7Z"/>
</svg>
