<svg xmlns="http://www.w3.org/2000/svg" viewBox="0 0 32 32" width="32" height="32" fill="#fc9800" fill-rule="evenodd" shape-rendering="crispEdges" aria-hidden="true">
<path d="M6 17L8 17L8 20L6 20ZM26 29L11 29L11 27L9 27L9 26L8 26L8 25L7 25L7 24L6 24L6 23L5 23L5 22L4 22L4 4L5 4L5 3L19 3L19 4L20 4L20 6L21 6L21 7L22 7L22 8L23 8L23 9L26 9ZM25 10L24 10L24 26L23 26L23 27L12 27L12 28L25 28ZM22 25L9 25L9 26L23 26L23 9L22 9ZM21 7L20 7L20 23L7 23L7 24L21 24ZM5 22L19 22L19 4L5 4ZM8 9L10 9L10 12L8 12ZM11 5L12 5L12 8L11 8ZM9 17L10 17L10 20L9 20ZM13 17L15 17L15 20L13 20ZM16 16L15 16L15 13L16 13ZM7 12L6 12L6 9L7 9ZM18 5L18 8L16 8L16 5ZM18 16L17 16L17 13L18 13ZM13 9L15 9L15 12L13 12ZM6 13L7 13L7 16L6 16ZM11 9L12 9L12 12L11 12ZM6 5L8 5L8 8L6 8ZM16 17L18 17L18 20L16 20ZM12 13L14 13L14 16L12 16ZM9 5L10 5L10 8L9 8ZM13 5L15 5L15 8L13 8ZM11 16L10 16L10 13L11 13ZM17 12L16 12L16 9L17 9ZM8 13L9 13L9 16L8 16ZM12 20L11 20L11 17L12 17Z"/>
</svg>
