<svg xmlns="http://www.w3.org/2000/svg" viewBox="0 0 32 32" width="32" height="32" fill="#fc007e" fill-rule="evenodd" aria-hidden="true">
<path d="M7.94 21L8.5 21L8.78 21.56L8.78 22.67L9.89 23.22L12.11 23.22L13.22 22.94L13.22 22.39L13.78 22.11L14.89 22.11L15.44 21.28L15.44 19.61L15.17 18.78L14.61 18.78L14.33 18.22L14.33 17.11L14.06 16.56L13.5 16.56L13.22 16.83L13.22 17.39L12.39 17.67L10.72 17.67L9.89 17.94L9.89 18.5L9.33 18.78L8.22 18.78L7.67 19.33L7.67 20.44ZM24.33 19.61L24.33 19.06L24.89 18.78L26 18.78L26.56 17.67L26.56 15.44L26.28 14.33L25.72 14.33L25.44 14.06L25.44 13.5L24.89 13.22L23.78 13.22L23.22 13.5L23.22 14.06L22.67 14.33L21.56 14.33L21 14.61L21 15.17L20.72 15.44L20.17 15.44L19.89 16.56L19.89 18.78L21 19.89L23.22 19.89ZM19.89 20.72L19.89 20.17L19.06 19.89L17.39 19.89L16.56 20.44L16.56 21.56L16.28 22.11L15.72 22.11L15.44 22.39L15.44 22.94L14.89 23.22L13.78 23.22L13.22 23.5L13.22 24.06L11.83 24.33L9.06 24.33L7.67 24.06L7.67 23.5L7.39 23.22L6.83 23.22L6.56 22.67L6.56 21.56L6.28 21L5.72 21L5.44 18.22L5.44 12.67L5.72 9.89L6.28 9.89L6.56 9.33L6.56 8.22L7.11 7.67L8.22 7.67L8.78 7.94L8.78 8.5L9.06 8.78L9.61 8.78L9.89 9.33L9.89 10.44L9.61 11L9.06 11L8.78 10.72L8.78 10.17L8.5 9.89L7.94 9.89L7.67 11.56L7.67 14.89L8.22 16.56L9.33 16.56L9.89 16.28L9.89 15.72L10.72 15.44L12.39 15.44L13.22 15.17L13.22 14.61L13.5 14.33L14.06 14.33L14.33 14.06L14.33 13.5L14.61 13.22L15.17 13.22L15.44 12.94L15.44 12.39L16 12.11L17.11 12.11L17.67 12.39L17.67 12.94L18.5 13.22L20.17 13.22L21 12.94L21 12.39L21.28 12.11L21.83 12.11L22.11 11.83L22.11 11.28L21.83 11L21.28 11L21 10.72L21 10.17L20.72 9.89L20.17 9.89L19.89 9.61L19.89 9.06L19.61 8.78L19.06 8.78L18.78 8.5L18.78 7.94L18.22 7.67L17.11 7.67L16.56 7.94L16.56 8.5L16.28 8.78L15.72 8.78L15.44 8.22L15.44 7.11L15.72 6.56L16.28 6.56L16.56 6.28L16.56 5.72L17.11 5.44L18.22 5.44L18.78 5.72L18.78 6.28L19.33 6.56L20.44 6.56L21 6.83L21 7.39L21.28 7.67L21.83 7.67L22.11 7.94L22.11 8.5L22.39 8.78L22.94 8.78L23.22 9.06L23.22 9.61L23.5 9.89L24.06 9.89L24.33 10.17L24.33 10.72L24.89 11L26 11L26.56 11.28L26.56 11.83L26.83 12.11L27.39 12.11L27.67 13.78L27.67 17.11L27.39 18.78L26.83 18.78L26.56 19.06L26.56 19.61L26 19.89L24.89 19.89L24.33 20.17L24.33 20.72L23.22 21L21 21ZM18.5 14.33L17.94 14.33L17.67 14.06L17.67 13.5L17.11 13.22L16 13.22L15.44 14.33L15.44 16.56L15.72 17.67L16.28 17.67L16.56 17.94L16.56 18.5L17.11 18.78L18.22 18.78L18.78 17.67L18.78 15.44Z"/>
</svg>
