<svg xmlns="http://www.w3.org/2000/svg" viewBox="0 0 27 27" width="32" height="32" fill-rule="evenodd" shape-rendering="crispEdges" aria-hidden="true">
<path fill="#00c7fc" d="M25 17L25 25L12 25L12 21L11 21L11 22L10 22L10 23L9 23L9 24L5 24L5 23L4 23L4 22L3 22L3 19L4 19L4 18L5 18L5 17L6 17L6 16L7 16L7 15L8 15L8 14L9 14L9 13L10 13L10 12L12 12L12 11L13 11L13 10L14 10L14 9L15 9L15 8L16 8L16 7L17 7L17 6L18 6L18 5L19 5L19 4L20 4L20 3L21 3L21 2L22 2L22 3L23 3L23 5L22 5L22 7L21 7L21 9L20 9L20 10L19 10L19 11L18 11L18 12L17 12L17 13L16 13L16 17L18 17L18 22L19 22L19 17ZM20 18L20 24L24 24L24 18ZM19 9L20 9L20 7L21 7L21 5L22 5L22 3L21 3L21 4L20 4L20 5L19 5L19 6L18 6L18 7L17 7L17 8L16 8L16 9L15 9L15 10L14 10L14 11L13 11L13 13L14 13L14 14L15 14L15 13L16 13L16 12L17 12L17 11L18 11L18 10L19 10ZM17 18L13 18L13 24L17 24ZM15 17L15 15L14 15L14 14L13 14L13 13L10 13L10 14L9 14L9 15L8 15L8 16L7 16L7 17L6 17L6 18L5 18L5 19L4 19L4 22L5 22L5 23L9 23L9 22L10 22L10 21L11 21L11 20L12 20L12 17ZM18 23L18 24L19 24L19 23Z"/><path fill="#007392" d="M21 11L21 12L20 12L20 13L19 13L19 14L18 14L18 15L17 15L17 17L16 17L16 13L17 13L17 12L18 12L18 11L19 11L19 10L20 10L20 9L21 9L21 7L22 7L22 5L24 5L24 7L23 7L23 9L22 9L22 11ZM9 24L9 23L10 23L10 22L11 22L11 21L12 21L12 24L11 24L11 25L10 25L10 26L6 26L6 25L5 25L5 24L4 24L4 23L5 23L5 24Z"/><path fill="#ff0000" d="M6 18L7 18L7 17L8 17L8 16L9 16L9 15L10 15L10 14L11 14L11 13L13 13L13 16L12 16L12 17L11 17L11 18L9 18L9 20L8 20L8 21L7 21L7 22L4 22L4 20L5 20L5 19L6 19ZM7 18L7 19L8 19L8 18ZM8 17L8 18L9 18L9 17ZM9 17L10 17L10 16L9 16Z"/><path fill="#55ffff" d="M21 5L21 7L20 7L20 4L21 4L21 3L22 3L22 5ZM17 21L16 21L16 18L17 18ZM20 23L23 23L23 18L24 18L24 24L20 24ZM19 9L19 10L15 10L15 9ZM13 23L16 23L16 22L17 22L17 24L13 24ZM15 12L16 12L16 13L15 13Z"/><path fill="#fffbf0" d="M18 23L19 23L19 24L18 24ZM21 22L23 22L23 23L20 23L20 18L23 18L23 19L21 19ZM14 22L16 22L16 23L13 23L13 20L16 20L16 21L14 21ZM16 18L16 19L13 19L13 18Z"/><path fill="#aa0000" d="M13 14L14 14L14 16L15 16L15 17L14 17L14 16L13 16L13 17L12 17L12 18L11 18L11 19L12 19L12 20L11 20L11 21L10 21L10 22L9 22L9 23L8 23L8 22L7 22L7 23L5 23L5 22L7 22L7 21L8 21L8 20L9 20L9 19L10 19L10 18L11 18L11 17L12 17L12 16L13 16ZM10 19L10 20L11 20L11 19ZM10 20L9 20L9 21L10 21ZM9 21L8 21L8 22L9 22Z"/><path fill="#2a3f55" d="M17 21L17 22L14 22L14 21ZM21 19L23 19L23 22L21 22ZM13 19L16 19L16 20L13 20Z"/><path fill="#d4ffff" d="M17 11L17 12L13 12L13 11ZM17 7L18 7L18 6L19 6L19 5L20 5L20 8L17 8Z"/><path fill="#55dfff" d="M18 10L18 11L14 11L14 10ZM15 14L14 14L14 13L13 13L13 12L15 12Z"/><path fill="#7f0000" d="M8 21L9 21L9 20L10 20L10 19L11 19L11 18L12 18L12 19L11 19L11 20L10 20L10 21L9 21L9 22L8 22L8 23L7 23L7 22L8 22ZM13 16L14 16L14 15L15 15L15 16L14 16L14 17L13 17Z"/><path fill="#ff1055" d="M4 19L5 19L5 18L6 18L6 17L7 17L7 18L6 18L6 19L5 19L5 20L4 20ZM10 13L11 13L11 14L10 14L10 15L9 15L9 16L8 16L8 15L9 15L9 14L10 14Z"/><path fill="#ffd5ff" d="M9 16L10 16L10 17L9 17L9 18L10 18L10 19L9 19L9 18L8 18L8 19L7 19L7 18L8 18L8 17L7 17L7 16L8 16L8 17L9 17Z"/><path fill="#aaffff" d="M20 8L20 9L16 9L16 8Z"/>
</svg>
