<svg xmlns="http://www.w3.org/2000/svg" viewBox="0 0 32 32" width="32" height="32" fill="#0090fc" fill-rule="evenodd" aria-hidden="true">
<path d="M17.94 24.33L18.5 24.33L18.78 23.78L18.78 22.67L19.06 22.11L19.61 22.11L19.89 21.28L19.89 19.61L20.17 18.78L20.72 18.78L21 17.94L21 16.28L21.28 15.44L21.83 15.44L22.11 14.61L22.11 12.94L21.83 12.11L21.28 12.11L21 12.67L21 13.78L20.72 14.33L20.17 14.33L19.89 15.17L19.89 16.83L19.61 17.67L19.06 17.67L18.78 18.5L18.78 20.17L18.5 21L17.94 21L17.67 21.56L17.67 22.67L17.39 23.22L16.83 23.22L16.56 23.78L16.56 24.89L16.28 25.44L15.72 25.44L15.44 25.72L15.44 26.28L15.17 26.56L14.61 26.56L14.33 26.83L14.33 27.39L14.89 27.67L16 27.67L16.56 27.39L16.56 26.83L16.83 26.56L17.39 26.56L17.67 26L17.67 24.89ZM18.78 24.89L18.78 26L18.5 26.56L17.94 26.56L17.67 26.83L17.67 27.39L17.39 27.67L16.83 27.67L16.56 28.22L16.56 29.33L16.28 29.89L15.72 29.89L15.44 29.61L15.44 29.06L15.17 28.78L14.61 28.78L14.33 28.5L14.33 27.94L14.06 27.67L13.5 27.67L13.22 26L13.22 22.67L12.67 21L11.56 21L11 21.28L11 21.83L10.72 22.11L10.17 22.11L9.89 21.83L9.89 21.28L9.61 21L9.06 21L8.78 20.72L8.78 20.17L8.5 19.89L7.94 19.89L7.67 18.5L7.67 15.72L7.94 14.33L8.5 14.33L8.78 13.5L8.78 11.83L9.06 11L9.61 11L9.89 10.17L9.89 8.5L10.17 7.67L10.72 7.67L11 6.56L11 4.33L12.94 3.22L16.83 3.22L18.78 3.5L18.78 4.06L19.06 4.33L19.61 4.33L19.89 4.61L19.89 5.17L20.17 5.44L20.72 5.44L21 6.28L21 7.94L20.72 8.78L20.17 8.78L19.89 9.06L19.89 9.61L20.17 9.89L20.72 9.89L21 10.17L21 10.72L21.28 11L21.83 11L22.11 11.28L22.11 11.83L22.39 12.11L22.94 12.11L23.22 12.94L23.22 14.61L22.94 15.44L22.39 15.44L22.11 16.28L22.11 17.94L21.83 18.78L21.28 18.78L21 19.61L21 21.28L20.72 22.11L20.17 22.11L19.89 22.67L19.89 23.78L19.61 24.33L19.06 24.33ZM10.17 21L10.72 21L11 20.72L11 20.17L11.56 19.89L12.67 19.89L13.22 19.61L13.22 19.06L13.5 18.78L14.06 18.78L14.33 18.5L14.33 17.94L13.78 17.67L12.67 17.67L12.11 17.94L12.11 18.5L11.56 18.78L10.44 18.78L9.89 19.33L9.89 20.44ZM15.44 17.11L15.44 18.22L15.17 18.78L14.61 18.78L14.33 20.44L14.33 23.78L14.61 25.44L15.17 25.44L15.44 24.89L15.44 23.78L15.72 23.22L16.28 23.22L16.56 22.67L16.56 21.56L16.83 21L17.39 21L17.67 20.17L17.67 18.5L17.94 17.67L18.5 17.67L18.78 16.83L18.78 15.17L19.06 14.33L19.61 14.33L19.89 13.5L19.89 11.83L19.33 11L18.22 11L17.67 11.28L17.67 11.83L17.11 12.11L16 12.11L15.44 11.28L15.44 9.61L15.72 8.78L16.28 8.78L16.56 8.22L16.56 7.11L16.83 6.56L17.39 6.56L17.67 6L17.67 4.89L16.28 4.33L13.5 4.33L12.11 5.17L12.11 6.83L11.83 7.67L11.28 7.67L11 8.5L11 10.17L10.72 11L10.17 11L9.89 11.83L9.89 13.5L9.61 14.33L9.06 14.33L8.78 15.44L8.78 17.67L9.06 18.78L9.61 18.78L9.89 18.5L9.89 17.94L10.44 17.67L11.56 17.67L12.11 17.39L12.11 16.83L12.94 16.56L14.61 16.56ZM16.83 11L17.39 11L17.67 10.72L17.67 10.17L17.94 9.89L18.5 9.89L18.78 9.61L18.78 9.06L19.06 8.78L19.61 8.78L19.89 7.94L19.89 6.28L19.61 5.44L19.06 5.44L18.78 5.72L18.78 6.28L18.5 6.56L17.94 6.56L17.67 7.11L17.67 8.22L17.39 8.78L16.83 8.78L16.56 9.33L16.56 10.44Z"/>
</svg>
